<?xml version="1.0" encoding="UTF-8" standalone="no"?>
<!DOCTYPE svg PUBLIC "-//W3C//DTD SVG 1.1//EN" "http://www.w3.org/Graphics/SVG/1.1/DTD/svg11.dtd">
<svg width="100%" height="100%" viewBox="0 0 529 247" version="1.1" xmlns="http://www.w3.org/2000/svg" xmlns:xlink="http://www.w3.org/1999/xlink" xml:space="preserve" xmlns:serif="http://www.serif.com/" style="fill-rule:evenodd;clip-rule:evenodd;stroke-linejoin:round;stroke-miterlimit:2;">
    <g transform="matrix(1,0,0,1,-695.621,-416.659)">
        <g transform="matrix(1,0,0,1,-486.069,-6.00607)">
            <path d="M1397.59,461.545L1412.44,422.665C1412.44,422.665 1634.99,422.665 1695.45,422.665C1703.73,422.665 1710.45,429.381 1710.45,437.665C1710.45,463.272 1710.45,515.127 1710.45,540.733C1710.45,544.711 1708.87,548.527 1706.06,551.34C1703.24,554.153 1699.43,555.733 1695.45,555.733C1634.96,555.733 1412.2,555.733 1412.2,555.733C1413.73,524.179 1406.21,491.361 1397.59,461.545Z" style="fill:rgb(188,0,45);"/>
        </g>
        <path d="M949.198,581.34C949.198,578.395 947.088,576.092 943.666,575.676L943.666,575.612C946.576,575.133 948.462,573.054 948.462,570.364C948.462,566.364 945.361,564.382 939.183,564.382C936.815,564.382 932.338,564.862 930.226,565.181L932.466,568.762L932.466,587.899C934.673,588.218 937.039,588.378 939.504,588.378C946.193,588.378 949.198,586.108 949.198,581.34ZM1023.34,573.854L1023.34,569.082L1032.85,569.082L1032.85,564.702L1017.91,564.702L1017.91,588.058L1032.85,588.058L1032.85,581.757L1029.36,583.678L1023.34,583.678L1023.34,577.978L1032.21,577.978L1032.21,573.854L1023.34,573.854ZM1119.79,569.21L1119.79,564.702L1101.87,564.702L1101.87,570.81L1105.43,569.21L1108.05,569.21L1108.05,588.058L1113.61,588.058L1113.61,569.21L1119.79,569.21ZM1188.56,564.702L1190.23,568.411L1183.86,588.058L1189.52,588.058L1190.77,583.002L1197.71,583.002L1198.99,588.058L1204.75,588.058L1197.2,564.702L1188.56,564.702ZM937.806,577.85L939.279,577.85C942.513,577.85 944.114,578.843 944.114,580.796C944.114,583.133 942.77,584.254 939.728,584.254C939.055,584.254 938.415,584.19 937.806,584.062L937.806,577.85ZM1196.66,578.878L1191.83,578.878L1194.22,569.402L1194.29,569.402L1196.66,578.878ZM937.806,573.95L937.806,568.698C938.351,568.57 938.927,568.506 939.6,568.506C942.226,568.506 943.538,569.403 943.538,571.164C943.538,573.022 941.969,573.95 938.863,573.95L937.806,573.95Z" style="fill:rgb(33,36,43);fill-rule:nonzero;"/>
        <path d="M970.09,443.027L976.036,456.282L953.281,526.501L973.52,526.501L977.979,508.431L1002.79,508.431L1007.37,526.501L1027.95,526.501L1000.96,443.027L970.09,443.027ZM1040.2,443.94L1048.21,456.737L1048.21,526.501L1067.29,526.501L1067.29,498.596C1070.61,498.939 1073.7,499.053 1076.45,499.053C1098.41,499.053 1109.95,488.77 1109.95,469.095C1109.95,450.909 1097.72,441.883 1073.36,441.883C1064.55,441.883 1048.09,442.797 1040.2,443.94ZM1122.78,443.94L1130.78,456.737L1130.78,526.501L1149.87,526.501L1149.87,498.596C1153.18,498.939 1156.28,499.053 1159.02,499.053C1180.98,499.053 1192.53,488.77 1192.53,469.095C1192.53,450.909 1180.3,441.883 1155.93,441.883C1147.12,441.883 1130.67,442.797 1122.78,443.94ZM999.019,493.692L981.753,493.692L990.329,459.825L990.558,459.825L999.019,493.692ZM1067.29,484.199L1067.29,457.309C1069.58,456.851 1071.98,456.622 1074.5,456.622C1086.06,456.622 1091.78,461.199 1091.78,470.239C1091.78,479.393 1085.49,484.771 1074.5,484.771C1072.1,484.771 1069.69,484.542 1067.29,484.199ZM1149.87,484.199L1149.87,457.309C1152.15,456.851 1154.56,456.622 1157.08,456.622C1168.63,456.622 1174.36,461.199 1174.36,470.239C1174.36,479.393 1168.06,484.771 1157.08,484.771C1154.67,484.771 1152.27,484.542 1149.87,484.199Z" style="fill:white;fill-rule:nonzero;"/>
        <g transform="matrix(-285.884,0,0,285.884,957.186,642.775)">
            <path d="M0.563,0.072C0.704,0.072 0.837,-0.004 0.915,-0.125L0.779,-0.215C0.727,-0.132 0.637,-0.082 0.546,-0.089C0.459,-0.095 0.385,-0.155 0.357,-0.238C0.303,-0.394 0.385,-0.602 0.427,-0.742L0.173,-0.791L0.225,-0.655C0.172,-0.472 0.131,-0.258 0.252,-0.089C0.326,0.014 0.438,0.072 0.563,0.072ZM0.559,-0.349L0.654,-0.367L0.626,-0.515L0.53,-0.498L0.559,-0.349ZM0.693,-0.349L0.789,-0.367L0.762,-0.515L0.665,-0.498L0.693,-0.349Z" style="fill:rgb(33,36,43);fill-rule:nonzero;"/>
        </g>
    </g>
</svg>
