<?xml version="1.0" encoding="UTF-8" standalone="no"?>
<!DOCTYPE svg PUBLIC "-//W3C//DTD SVG 1.1//EN" "http://www.w3.org/Graphics/SVG/1.1/DTD/svg11.dtd">
<svg width="100%" height="100%" viewBox="0 0 109 91" version="1.1" xmlns="http://www.w3.org/2000/svg" xmlns:xlink="http://www.w3.org/1999/xlink" xml:space="preserve" xmlns:serif="http://www.serif.com/" style="fill-rule:evenodd;clip-rule:evenodd;stroke-linejoin:round;stroke-miterlimit:2;">
    <g transform="matrix(1,0,0,1,-905.609,-521.114)">
        <g transform="matrix(0.366806,0,0,0.366806,474.384,240.331)">
            <path d="M1406.07,766.274C1442.56,766.286 1472.19,795.916 1472.19,832.411C1472.19,868.883 1442.6,898.5 1406.13,898.547C1407.66,866.994 1400.14,834.175 1391.52,804.36L1406.07,766.274Z" style="fill:rgb(188,0,45);"/>
        </g>
        <g transform="matrix(-104.864,0,0,104.864,1001.55,604.054)">
            <path d="M0.563,0.072C0.704,0.072 0.837,-0.004 0.915,-0.125L0.779,-0.215C0.727,-0.132 0.637,-0.082 0.546,-0.089C0.459,-0.095 0.385,-0.155 0.357,-0.238C0.303,-0.394 0.385,-0.602 0.427,-0.742L0.173,-0.791L0.225,-0.655C0.172,-0.472 0.131,-0.258 0.252,-0.089C0.326,0.014 0.438,0.072 0.563,0.072ZM0.559,-0.349L0.654,-0.367L0.626,-0.515L0.53,-0.498L0.559,-0.349ZM0.693,-0.349L0.789,-0.367L0.762,-0.515L0.665,-0.498L0.693,-0.349Z" style="fill:white;fill-rule:nonzero;"/>
        </g>
    </g>
</svg>
