<?xml version="1.0" encoding="UTF-8" standalone="no"?>
<!DOCTYPE svg PUBLIC "-//W3C//DTD SVG 1.1//EN" "http://www.w3.org/Graphics/SVG/1.1/DTD/svg11.dtd">
<svg width="100%" height="100%" viewBox="0 0 100 87" version="1.1" xmlns="http://www.w3.org/2000/svg" xmlns:xlink="http://www.w3.org/1999/xlink" xml:space="preserve" xmlns:serif="http://www.serif.com/" style="fill-rule:evenodd;clip-rule:evenodd;stroke-linejoin:round;stroke-miterlimit:2;">
    <g transform="matrix(1,0,0,1,2.66454e-14,-6.8625)">
        <g transform="matrix(70,0,0,70,-2.94,46.8325)">
            <path d="M0.494,-0.144L0.494,-0L0.062,-0L0.062,-0.144L0.204,-0.144L0.204,-0.399C0.198,-0.391 0.189,-0.383 0.176,-0.375C0.163,-0.367 0.149,-0.359 0.134,-0.352C0.118,-0.345 0.102,-0.339 0.086,-0.335C0.07,-0.33 0.055,-0.328 0.042,-0.328L0.042,-0.476C0.053,-0.476 0.067,-0.48 0.084,-0.487C0.101,-0.494 0.117,-0.502 0.135,-0.513C0.152,-0.524 0.167,-0.534 0.18,-0.545C0.193,-0.556 0.201,-0.564 0.204,-0.571L0.367,-0.571L0.367,-0.144L0.494,-0.144Z" style="fill:white;fill-rule:nonzero;"/>
        </g>
        <g transform="matrix(70,0,0,70,29.19,67.4125)">
            <path d="M0.035,-0C0.035,-0.032 0.038,-0.06 0.043,-0.085C0.048,-0.11 0.056,-0.133 0.068,-0.153C0.079,-0.174 0.095,-0.193 0.115,-0.211C0.134,-0.229 0.159,-0.246 0.189,-0.262C0.22,-0.279 0.247,-0.293 0.268,-0.305C0.289,-0.317 0.305,-0.327 0.318,-0.335C0.331,-0.343 0.34,-0.351 0.344,-0.359C0.349,-0.367 0.352,-0.375 0.352,-0.385C0.352,-0.398 0.349,-0.409 0.343,-0.419C0.337,-0.429 0.328,-0.436 0.317,-0.441C0.306,-0.446 0.292,-0.449 0.275,-0.449C0.262,-0.449 0.249,-0.447 0.237,-0.444C0.225,-0.441 0.214,-0.436 0.203,-0.429C0.192,-0.422 0.181,-0.414 0.171,-0.406C0.161,-0.397 0.151,-0.386 0.141,-0.375L0.04,-0.493C0.051,-0.504 0.066,-0.516 0.084,-0.527C0.101,-0.538 0.121,-0.549 0.144,-0.558C0.167,-0.567 0.192,-0.574 0.219,-0.58C0.246,-0.585 0.274,-0.588 0.303,-0.588C0.351,-0.588 0.392,-0.581 0.425,-0.566C0.458,-0.552 0.483,-0.531 0.5,-0.505C0.517,-0.479 0.526,-0.448 0.526,-0.412C0.526,-0.389 0.523,-0.369 0.516,-0.351C0.508,-0.334 0.499,-0.319 0.488,-0.305C0.477,-0.291 0.464,-0.279 0.45,-0.268C0.435,-0.257 0.421,-0.248 0.407,-0.239C0.391,-0.231 0.376,-0.223 0.362,-0.215C0.348,-0.207 0.335,-0.2 0.323,-0.192C0.311,-0.185 0.3,-0.178 0.29,-0.17C0.279,-0.162 0.269,-0.154 0.26,-0.144L0.537,-0.144L0.537,-0L0.035,-0Z" style="fill:white;fill-rule:nonzero;"/>
        </g>
        <g transform="matrix(70,0,0,70,62.69,82.8475)">
            <path d="M0.393,-0.244C0.421,-0.239 0.446,-0.228 0.467,-0.211C0.488,-0.194 0.504,-0.172 0.516,-0.147C0.527,-0.121 0.533,-0.093 0.533,-0.061C0.533,-0.019 0.522,0.018 0.5,0.049C0.478,0.08 0.447,0.105 0.406,0.122C0.365,0.139 0.317,0.147 0.262,0.147C0.211,0.147 0.166,0.139 0.127,0.124C0.087,0.109 0.053,0.087 0.024,0.058L0.11,-0.056C0.128,-0.038 0.149,-0.024 0.172,-0.014C0.195,-0.004 0.223,0.001 0.254,0.001C0.292,0.001 0.32,-0.006 0.339,-0.02C0.358,-0.035 0.367,-0.056 0.367,-0.085C0.367,-0.117 0.356,-0.14 0.334,-0.156C0.311,-0.172 0.276,-0.18 0.228,-0.18L0.198,-0.18L0.198,-0.295L0.231,-0.295C0.268,-0.295 0.297,-0.303 0.318,-0.319C0.339,-0.335 0.35,-0.356 0.35,-0.382C0.35,-0.397 0.346,-0.41 0.34,-0.42C0.333,-0.43 0.323,-0.438 0.311,-0.443C0.298,-0.448 0.283,-0.451 0.266,-0.451C0.239,-0.451 0.215,-0.445 0.192,-0.432C0.169,-0.419 0.15,-0.401 0.135,-0.376L0.034,-0.492C0.049,-0.511 0.069,-0.528 0.095,-0.543C0.12,-0.557 0.149,-0.568 0.182,-0.576C0.215,-0.584 0.249,-0.588 0.284,-0.588C0.331,-0.588 0.373,-0.581 0.408,-0.566C0.444,-0.551 0.472,-0.53 0.492,-0.503C0.511,-0.477 0.521,-0.445 0.521,-0.408C0.521,-0.382 0.516,-0.357 0.505,-0.334C0.494,-0.31 0.479,-0.291 0.46,-0.275C0.441,-0.259 0.418,-0.249 0.393,-0.244Z" style="fill:white;fill-rule:nonzero;"/>
        </g>
    </g>
</svg>
